<svg xmlns="http://www.w3.org/2000/svg" version="1.1" xmlns:xlink="http://www.w3.org/1999/xlink" xmlns:svgjs="http://svgjs.dev/svgjs" style="overflow: hidden; height: 85vh;" viewBox="0 0 1920 1080" class="overflow-hidden rounded-md drop-shadow-lg transition duration-300"><rect width="1920" height="1080" fill="#6c5bbb"></rect><g clip-path="url(&quot;#SvgjsClipPath1748&quot;)"><g transform="matrix(0.41212314197709443,-1.0736174904717823,1.0736174904717823,0.41212314197709443,-33.749243161347636,1314.600529634079)"><path d="M0,-1080C0.647504133691522,-1001.8829907861524,14.290766996863072,-764.6613194764485,3.8850248021491325,-611.2979447169141C-6.520717392564807,-457.9345699573797,-61.378417016217675,-306.73270995289215,-62.43445316828363,-159.81975144279346C-63.49048932034959,-12.906792932694799,-21.148494730976093,126.03385662708772,-2.451192110246595,270.17980634367785C16.246110510482904,414.32575606026796,44.681033748916306,538.152483730881,49.749362556093345,705.0559468567474C54.817691363270384,871.9594099826137,38.3009991023662,1095.2771334404954,27.95878073281564,1271.600585098876C17.616562363265082,1447.9240367572568,-7.644150872407411,1614.930087656844,-12.303947661210017,1762.9966568070315C-16.963744450012623,1911.063225957219,-2.0506579435350027,2093.8327761345054,0,2160L 1920 2160 L 1920 -1080 Z" fill="url(&quot;#SvgjsLinearGradient1743&quot;)"></path><path d="M384,-1080C380.74321570964605,-972.487070819252,368.6968497383938,-639.2163461636969,364.45929425787625,-434.9224249155124C360.2217387773587,-230.62850366732786,363.58961624230983,-71.59046860544976,358.57466711689466,145.76352748910728C353.5597179914795,363.1175235836643,323.4890652259139,643.1703318579288,334.36959950538534,869.2015516518298C345.25013378485676,1095.232771445731,415.5861393779539,1286.8177715278186,423.857872793723,1501.9508462525137C432.1296062094921,1717.0839209772087,390.64297879895383,2050.3251410420858,384,2160L 1920 2160 L 1920 -1080 Z" fill="url(&quot;#SvgjsLinearGradient1744&quot;)"></path><path d="M768,-1080C772.5587041217775,-967.4917844388858,803.9644653818348,-621.756794248984,795.352224730665,-404.9507066333148C786.7399840794951,-188.14461901764562,724.2014392745145,19.324444373928344,716.3265560929808,220.83652569401494C708.4516729114471,422.3486070141015,737.7258946678473,595.422597529052,748.1029256414623,804.1217812872048C758.4799566150773,1012.8209650453576,775.2725628749145,1247.0519251241326,778.5887419346708,1473.031628242932C781.9049209944271,1699.0113313617312,769.7647903224452,2045.5052713738219,768,2160L 1920 2160 L 1920 -1080 Z" fill="url(&quot;#SvgjsLinearGradient1745&quot;)"></path><path d="M1152,-1080C1150.3587286500301,-1014.636677235812,1142.6587433614702,-838.8249047568167,1142.1523719001812,-687.8200634148723C1141.646000438892,-536.8152220729278,1141.8691721587365,-338.9196457637772,1148.9617712322656,-173.97095194833332C1156.0543703057947,-9.022258132889391,1196.5069267781253,133.18248413707101,1184.7079663413558,301.87209947779144C1172.9090059045864,470.56171481851186,1076.0092378428903,678.9063095844397,1078.1680086116492,838.1667400959892C1080.326779380408,997.4271706075388,1176.2090612929355,1106.968452734981,1197.6605909539082,1257.4346825470886C1219.112120614881,1407.9009123591964,1214.487285069804,1590.5365660598168,1206.877186577486,1740.9641189686354C1199.267088085168,1891.391671877454,1161.1461977629144,2090.1606864947726,1152,2160L 1920 2160 L 1920 -1080 Z" fill="url(&quot;#SvgjsLinearGradient1746&quot;)"></path><path d="M1536,-1080C1535.5694173502948,-962.2619273855519,1533.2357481450376,-582.8489079902482,1533.416504101768,-373.57156431331106C1533.5972600584983,-164.29422063637386,1549.4811938751077,-18.388901301983964,1537.0845357403812,175.66406206162299C1524.6878776056546,369.71702542522996,1452.9567718835315,573.065532209262,1459.0365552934093,790.7462158683306C1465.116338703287,1008.4268995273993,1560.735995415216,1253.5391999940905,1573.5632361996477,1481.7481640160354C1586.3904769840794,1709.9571280379803,1542.2605393666079,2046.958027336006,1536,2160L 1920 2160 L 1920 -1080 Z" fill="url(&quot;#SvgjsLinearGradient1747&quot;)"></path></g></g><defs><linearGradient x1="0.1" y1="0" x2="0" y2="1" id="SvgjsLinearGradient1743"><stop stop-color="#6c5bbb" offset="0"></stop><stop stop-color="#5c5bbb" offset="0"></stop></linearGradient><linearGradient x1="0.1" y1="0" x2="0" y2="1" id="SvgjsLinearGradient1744"><stop stop-color="#9185cc" offset="0"></stop><stop stop-color="#8585cc" offset="0.2"></stop></linearGradient><linearGradient x1="0.1" y1="0" x2="0" y2="1" id="SvgjsLinearGradient1745"><stop stop-color="#b7afde" offset="0"></stop><stop stop-color="#afafde" offset="0.4"></stop></linearGradient><linearGradient x1="0.1" y1="0" x2="0" y2="1" id="SvgjsLinearGradient1746"><stop stop-color="#dcd8ef" offset="0"></stop><stop stop-color="#d8d8ef" offset="0.6"></stop></linearGradient><linearGradient x1="0.1" y1="0" x2="0" y2="1" id="SvgjsLinearGradient1747"><stop stop-color="#ffffff" offset="0"></stop><stop stop-color="#ffffff" offset="0.8"></stop></linearGradient><clipPath id="SvgjsClipPath1748"><rect width="1920" height="1080"></rect></clipPath></defs></svg>