<?xml version="1.0" encoding="utf-8"?>
<!-- Generator: Adobe Illustrator 22.1.0, SVG Export Plug-In . SVG Version: 6.00 Build 0)  -->
<svg version="1.1" id="Layer_1" xmlns="http://www.w3.org/2000/svg" xmlns:xlink="http://www.w3.org/1999/xlink" x="0px" y="0px"
	 viewBox="0 0 512 512" style="enable-background:new 0 0 512 512;" xml:space="preserve">
<g>
	<title>jenkins</title>
	<g>
		<path d="M95.3,481H77.1c-0.5-1.2-0.9-2.5-1.3-3.7c-4-12.5-11.1-28-13-40.4c-2.8-18.4,14.6-19.5,25.8-27.4
			c17.1-12.4,30.6-19.2,49.2-30.4c5.6-3.3,22.2-11.6,24-15.5c3.7-7.6-6.5-18.4-9.2-24.4c-4.3-9.4-6.5-17.6-7.1-26.9
			c-15.5-2.5-27.2-11.8-34.6-22.2c-11.8-17.3-20-49.4-9.8-73.8c0.8-1.9,4.8-5.7,5.3-8.7c1.1-5.8-2-13.5-2.3-19.6
			c-1.2-31.7,5.3-59,26.7-68.6c8.6-34.5,39.6-46,68.8-63.1c10.9-6.5,23-10.6,35.4-15.2c44.4-16.4,113-13.3,149.9,14.7
			c15.7,11.9,40.8,36.9,49.8,55.1c23.7,47.9,21.9,128,5.3,186.3c-2.3,7.8-5.4,19.3-10,28.7c-3.1,6.5-13,19.7-11.7,25.5
			c1.2,5.9,22.3,22,26.8,26.2c8.1,7.9,23.7,18.3,24.8,28.1c1.3,10.5-4.6,25-7.7,35.2c-4,13.5-8.1,27-12.2,40H95.3L95.3,481z
			 M303.5,414.6c-10.2-5.6-25.5-11.6-38.8-14.2c-16.3-3.1-14.6,22.3-14.1,37.3c0.6,12.1,6.8,24.7,9.6,32.7c1.4,3.7,1.7,7.7,4.8,8.4
			c5.6,1.2,24.2-6.2,29.5-9c11.2-6.1,19.9-15.8,29.5-22.3c0.3-3.2,0.3-6.4,0.6-9.5c-5.6-2.8-12.1-4.8-20.6-5.2
			c5.8-2.9,14.1-2.9,19.4-6.2l0.3-3.7c-9.3-0.5-12.9-4.8-19.1-8.1L303.5,414.6z M443.4,469.7c3.6-11.6,6.7-22.9,8.7-32.8
			c1.1-5.4,4-17.2,3.3-22c-1.1-8.6-12.8-15-18.8-20.4c-10.9-9.9-17.8-18.3-29.2-27.6c-4.7,7-14.7,11.6-18.5,17.1
			c27.2-12.9,32.1,49.2,21.4,69.2c1.7,6.1,7.3,8.4,9.7,13.8l-1.6,3.1h24.2c0.2,0,0.6,0,0.8,0.2L443.4,469.7z M318.9,469.4
			c-1-1.4-1.9-2.6-2.8-3.9l-5.6,3.6h8.4V469.4z M370.8,469.4c0.2-3.9,0.4-7.6,0.6-11.2c-10,0.5-15.5-9-22.4-9.9
			c-6.1-0.8-11.3,6.7-19.1,3.7c-1.8,2-3.4,4.3-5.3,5.9c2.9,3.4,5.5,7,7.9,10.9h15.3c0.3-3.1,2.6-5.4,5.6-5.4c3.1,0,5.3,2.3,5.3,5.1
			h12.4L370.8,469.4z M410.5,469.4c-5.9-9-17.7-16.9-31.5-10.4l-0.6,10.1h32.1V469.4z M251,469.4l-2-6.5
			c-4.2-13.6-6.7-23.7-7.6-31.5c-17.1-8.2-35.2-16.3-49.7-26.7c-2.9-2-20.8-25.4-23.1-24.5c-32.7,12.7-63,34.9-90.3,56
			c4.8,10.4,9,21.4,13,32.6h159.4L251,469.4z M405.9,429.8c-0.5-9.6-3.1-29.2-8.9-32.6c-12.4-7.3-34.6,14.6-43.9,17.7
			c0.9,2.8,2.6,5,2.9,9c5.3-1.4,12.1-0.5,16.8,1.8c-5.6,0.5-11.8,0.5-15.5,3.1c-1.4,3.6,0.3,8.9-0.6,14.3c13,3.7,28.1,5.7,44.8,6.2
			c3.1-4.3,4.3-12.1,4-20.3L405.9,429.8z M329.5,423.1c-0.9,7,0.8,9.6,2.2,17.7c23.6,7.3,19.4-32.6-2.5-17.9L329.5,423.1z
			 M205.8,396.6c-8.4,8.6,23.8,20.3,34,20.9c0-5.4,3.1-10.5,2.6-14.4C230.2,400.9,214.1,402.4,205.8,396.6L205.8,396.6z
			 M310.1,400.7c0,0.8-1.1,0.5-1.2,1.2c10.9,8.5,19,10.3,33.8,9.6c6.6-4.9,12.5-10.5,19.6-15.2C346.2,397.7,326,407.7,310.1,400.7
			L310.1,400.7z M374.2,68.3c-30.1-17-81.6-29.8-113.9-13.7c-25.9,13-61.4,34.5-73.2,61.7c11.3,26.2-3.1,50.3-4.2,77
			c-0.4,14.2,6.7,26.7,7.3,42.1c-3.8,6.3-15.5,7.1-23.7,6.7c-2.7-13.7-7.6-29.1-21.7-30.6c-19.9-2.1-34.6,14.4-35.4,31.6
			c-1.1,20.3,15.7,53.8,39.1,51.5c9.2-0.9,11.4-10.1,21.4-10.1c5.4,10.7-8.3,14.1-9.8,21.6c-0.3,2,1.1,9.6,2,13.3
			c4.3,17.6,13.9,40.4,23.3,54c11.9,16.8,35.4,19.7,60.6,21.4c4.5-9.8,21.1-9,32-6.5c-13-5.1-25-17.7-35.2-28.7
			c-11.6-12.7-23.1-26.4-23.7-42.8c21.7,30.1,39.3,56.2,78.7,69.5c29.8,9.8,64.7-4.8,87.4-20.8c9.6-6.7,15.2-17.4,22-27
			c25.3-36.3,37.1-88.3,34.5-138.6c-1.1-20.8-1.1-41.6-8.1-55.4c-7.3-14.6-31.8-27.6-46.4-14.6c-2.8-14.4,11.8-23.1,29-18
			c-12.4-16-25-34.9-42.5-44.7L374.2,68.3z M296.1,310.3c11.5,29,51.1,25.5,84.5,24.8c-1.6,3.7-4.8,8.1-8.8,9.7
			c-10.6,4.3-40.2,7.6-55.1-0.2c-9.4-5.1-15.5-16.4-20.7-23c-2.6-3.2-14.9-11.4-0.2-11.4L296.1,310.3z M299.2,293.9
			c16.8,8.7,47.2,9.7,70,9c1.2,5,1.2,11.1,1.3,17.1C341.4,321.6,307,314.4,299.2,293.9L299.2,293.9z M424.4,283
			c-8.9,16.9-21.5,35.5-47.6,36.1c-0.4-5.3-0.8-13.8,0-16.9C396.7,300.2,409.1,290.1,424.4,283L424.4,283z M412.2,270.5
			c-19.1,12.4-40.4,25.8-71.7,22.7c-6.6-5.8-9.1-18.8-2.6-27.4c3.4,5.9,1.1,16.6,10.7,18.2c17.7,3.1,38.2-10.8,51.2-15.7
			c7.8-13.3-0.9-18.2-7.9-26.8c-14.7-17.5-34.3-39.4-33.8-65.9c5.8-4.2,6.5,6.5,7.3,8.4c7.6,18,26.7,40.8,40.8,56.2
			c3.4,4,9,7.3,9.5,9.9c1.8,7.2-4.8,16-3.9,20.8L412.2,270.5z M160.2,257.9c-5.8-3.4-7.3-18.5-14.4-18.9c-10-0.6-8.2,19.6-8.2,31.4
			c-7-6.1-8.1-25.6-3.1-35.4c-5.8-2.9-8.3,3.1-11.6,5.3c4.1-29.8,43.9-13.7,37.3,18L160.2,257.9z M129.9,143.4
			c-12.9,14.2-10.1,40.8-8.6,59.8c23.4-14.7,54.3,1.1,54.1,26.1c11.2-0.3,4.2-14,2.2-22.8c-6.7-28.7,11.1-59.7,0.7-86.1
			c-19.9,1.5-36.3,9.7-48.3,22.7V143.4z M300.9,164.2c5.7,10.6,7.5,21.5,15.7,29.5c3.6,3.6,10.7,8,7.2,17.9
			c-0.9,2.3-6.9,7.3-10.3,8.4c-12.7,3.7-42.3,0.6-32.3-15.1c10.6,0.2,24.6,6.7,32.5-0.9c-5.9-9.8-16.6-28.7-12.6-39.9L300.9,164.2z
			 M417.1,164h1.3c6.1,12.5,11.2,25.8,18.8,36.8c-5,11.8-38.5,22.3-37.9,1.1c7.3-3.2,19.7-0.7,26.2-4.7c-3.6-10.5-9-18.9-8.1-33.2
			L417.1,164z M287.2,133.7c-26.6-6.2-40,11.1-48,29.1c-7.3-1.7-4.4-11.6-2.6-16.6c4.8-13.2,24-30.6,39.7-28.2
			C283.1,119.1,292.3,125.3,287.2,133.7L287.2,133.7z M222.3,60.9c-29.3,8.2-66.8,29.4-78.8,55.7c9.3-1.3,15.7-6,25-6.6
			c3.5-0.3,8,1.4,12,0.3c8-2,14.6-20,20.7-26.4c5.8-6.4,12.8-9.3,17.6-15.1c3.1-1.7,7.6-1.4,7.9-6.2c-1.4-1.4-2.9-2.5-4.4-2
			L222.3,60.9z"/>
	</g>
</g>
</svg>
