<svg id="visual" viewBox="0 0 960 540" width="960" height="540" xmlns="http://www.w3.org/2000/svg" xmlns:xlink="http://www.w3.org/1999/xlink" version="1.1"><rect x="0" y="0" width="960" height="540" fill="#ffffff"></rect><path d="M0 327L22.8 339.3C45.7 351.7 91.3 376.3 137 386.7C182.7 397 228.3 393 274 388.8C319.7 384.7 365.3 380.3 411.2 370.5C457 360.7 503 345.3 548.8 337.3C594.7 329.3 640.3 328.7 686 333.2C731.7 337.7 777.3 347.3 823 350C868.7 352.7 914.3 348.3 937.2 346.2L960 344L960 541L937.2 541C914.3 541 868.7 541 823 541C777.3 541 731.7 541 686 541C640.3 541 594.7 541 548.8 541C503 541 457 541 411.2 541C365.3 541 319.7 541 274 541C228.3 541 182.7 541 137 541C91.3 541 45.7 541 22.8 541L0 541Z" fill="#5f04f1"></path><path d="M0 413L22.8 414.7C45.7 416.3 91.3 419.7 137 422.7C182.7 425.7 228.3 428.3 274 428.2C319.7 428 365.3 425 411.2 413.3C457 401.7 503 381.3 548.8 371.2C594.7 361 640.3 361 686 369.3C731.7 377.7 777.3 394.3 823 397.2C868.7 400 914.3 389 937.2 383.5L960 378L960 541L937.2 541C914.3 541 868.7 541 823 541C777.3 541 731.7 541 686 541C640.3 541 594.7 541 548.8 541C503 541 457 541 411.2 541C365.3 541 319.7 541 274 541C228.3 541 182.7 541 137 541C91.3 541 45.7 541 22.8 541L0 541Z" fill="#9657f7"></path><path d="M0 444L22.8 440.2C45.7 436.3 91.3 428.7 137 426.8C182.7 425 228.3 429 274 431.2C319.7 433.3 365.3 433.7 411.2 437.3C457 441 503 448 548.8 446.3C594.7 444.7 640.3 434.3 686 429.5C731.7 424.7 777.3 425.3 823 429.2C868.7 433 914.3 440 937.2 443.5L960 447L960 541L937.2 541C914.3 541 868.7 541 823 541C777.3 541 731.7 541 686 541C640.3 541 594.7 541 548.8 541C503 541 457 541 411.2 541C365.3 541 319.7 541 274 541C228.3 541 182.7 541 137 541C91.3 541 45.7 541 22.8 541L0 541Z" fill="#bf8ffb"></path><path d="M0 462L22.8 459C45.7 456 91.3 450 137 451.2C182.7 452.3 228.3 460.7 274 460.8C319.7 461 365.3 453 411.2 448C457 443 503 441 548.8 441.5C594.7 442 640.3 445 686 451.2C731.7 457.3 777.3 466.7 823 470.8C868.7 475 914.3 474 937.2 473.5L960 473L960 541L937.2 541C914.3 541 868.7 541 823 541C777.3 541 731.7 541 686 541C640.3 541 594.7 541 548.8 541C503 541 457 541 411.2 541C365.3 541 319.7 541 274 541C228.3 541 182.7 541 137 541C91.3 541 45.7 541 22.8 541L0 541Z" fill="#e1c7fe"></path><path d="M0 511L22.8 506.7C45.7 502.3 91.3 493.7 137 493.5C182.7 493.3 228.3 501.7 274 502C319.7 502.3 365.3 494.7 411.2 495.3C457 496 503 505 548.8 508C594.7 511 640.3 508 686 502.5C731.7 497 777.3 489 823 484.3C868.7 479.7 914.3 478.3 937.2 477.7L960 477L960 541L937.2 541C914.3 541 868.7 541 823 541C777.3 541 731.7 541 686 541C640.3 541 594.7 541 548.8 541C503 541 457 541 411.2 541C365.3 541 319.7 541 274 541C228.3 541 182.7 541 137 541C91.3 541 45.7 541 22.8 541L0 541Z" fill="#ffffff"></path></svg>